<svg xmlns="http://www.w3.org/2000/svg" version="1.1" xmlns:xlink="http://www.w3.org/1999/xlink" width="28" height="28"><svg xmlns="http://www.w3.org/2000/svg" version="1.1" xmlns:xlink="http://www.w3.org/1999/xlink" width="28" height="28"><svg xmlns="http://www.w3.org/2000/svg" version="1.1" xmlns:xlink="http://www.w3.org/1999/xlink" width="28" height="28"><svg xmlns="http://www.w3.org/2000/svg" version="1.1" xmlns:xlink="http://www.w3.org/1999/xlink" width="28" height="28"><svg xmlns="http://www.w3.org/2000/svg" viewBox="0 0 28 28">
  <rect width="28" height="28" rx="6" fill="#1A1F2E"></rect>
  <circle cx="14" cy="14" r="3.5" fill="#fff"></circle>
  <circle cx="14" cy="4.5" r="2" fill="#4A90D9"></circle>
  <circle cx="14" cy="23.5" r="2" fill="#E05C5C"></circle>
  <circle cx="4.5" cy="14" r="2" fill="#4CAF82"></circle>
  <circle cx="23.5" cy="14" r="2" fill="#F0883E"></circle>
  <circle cx="6.5" cy="6.5" r="1.6" fill="#8B6FD4"></circle>
  <circle cx="21.5" cy="6.5" r="1.6" fill="#D4A017"></circle>
  <circle cx="6.5" cy="21.5" r="1.6" fill="#5BB8A0"></circle>
  <circle cx="21.5" cy="21.5" r="1.6" fill="#D46FAB"></circle>
  <line x1="14" y1="10.5" x2="14" y2="6.5" stroke="#4A90D9" stroke-width="1.3" stroke-linecap="round"></line>
  <line x1="14" y1="17.5" x2="14" y2="21.5" stroke="#E05C5C" stroke-width="1.3" stroke-linecap="round"></line>
  <line x1="10.5" y1="14" x2="6.5" y2="14" stroke="#4CAF82" stroke-width="1.3" stroke-linecap="round"></line>
  <line x1="17.5" y1="14" x2="21.5" y2="14" stroke="#F0883E" stroke-width="1.3" stroke-linecap="round"></line>
  <line x1="11" y1="11" x2="8" y2="8" stroke="#8B6FD4" stroke-width="1.2" stroke-linecap="round"></line>
  <line x1="17" y1="11" x2="20" y2="8" stroke="#D4A017" stroke-width="1.2" stroke-linecap="round"></line>
  <line x1="11" y1="17" x2="8" y2="20" stroke="#5BB8A0" stroke-width="1.2" stroke-linecap="round"></line>
  <line x1="17" y1="17" x2="20" y2="20" stroke="#D46FAB" stroke-width="1.2" stroke-linecap="round"></line>
</svg></svg><style>@media (prefers-color-scheme: light) { :root { filter: none; } }
@media (prefers-color-scheme: dark) { :root { filter: none; } }
</style></svg></svg><style>@media (prefers-color-scheme: light) { :root { filter: none; } }
@media (prefers-color-scheme: dark) { :root { filter: none; } }
</style></svg>